<svg width="73" height="72" viewBox="0 0 73 72" fill="none" xmlns="http://www.w3.org/2000/svg">
<path d="M0.5 36C0.5 16.1178 16.6178 0 36.5 0C56.3823 0 72.5 16.1178 72.5 36C72.5 55.8823 56.3823 72 36.5 72C16.6178 72 0.5 55.8823 0.5 36Z" fill="url(#paint0_linear_242_3960)" fill-opacity="0.15"/>
<g clip-path="url(#clip0_242_3960)">
<path d="M39.408 20.2761C39.2157 20.2407 39.0181 20.248 38.8289 20.2975C38.6398 20.347 38.4639 20.4375 38.3137 20.5626C38.1634 20.6877 38.0425 20.8442 37.9595 21.0212C37.8765 21.1982 37.8334 21.3913 37.8333 21.5867V25.4254C35.6089 25.1321 33.3484 25.5429 31.3695 26.6003C29.3906 27.6576 27.7926 29.3083 26.8 31.3205C25.8074 33.3327 25.4701 35.6053 25.8355 37.8191C26.2008 40.0328 27.2505 42.0765 28.8371 43.663C30.4236 45.2495 32.4673 46.2992 34.681 46.6646C36.8948 47.03 39.1673 46.6927 41.1796 45.7001C43.1918 44.7075 44.8425 43.1095 45.8998 41.1306C46.9572 39.1516 47.368 36.8912 47.0747 34.6667H50.9227C51.1181 34.6666 51.3112 34.6236 51.4882 34.5406C51.6652 34.4575 51.8218 34.3366 51.9468 34.1864C52.0719 34.0361 52.1624 33.8602 52.2119 33.6711C52.2614 33.482 52.2687 33.2843 52.2333 33.0921C51.6348 29.9128 50.0902 26.9883 47.8018 24.7015C45.5134 22.4147 42.5877 20.8723 39.408 20.2761ZM41.8333 37.3334H38.7973C38.5937 37.687 38.3114 37.9891 37.9723 38.2161C37.6332 38.4431 37.2464 38.589 36.8419 38.6425C36.4373 38.696 36.0259 38.6556 35.6394 38.5246C35.253 38.3935 34.9019 38.1753 34.6133 37.8867C34.3248 37.5982 34.1065 37.2471 33.9755 36.8606C33.8444 36.4742 33.8041 36.0627 33.8576 35.6582C33.9111 35.2537 34.057 34.8669 34.284 34.5278C34.511 34.1887 34.813 33.9064 35.1667 33.7027V29.3334C35.1667 28.9798 35.3071 28.6406 35.5572 28.3906C35.8072 28.1406 36.1464 28.0001 36.5 28.0001C36.8536 28.0001 37.1928 28.1406 37.4428 28.3906C37.6929 28.6406 37.8333 28.9798 37.8333 29.3334V33.7027C38.2328 33.9351 38.5649 34.2673 38.7973 34.6667H41.8333C42.1869 34.6667 42.5261 34.8072 42.7761 35.0573C43.0262 35.3073 43.1667 35.6465 43.1667 36.0001C43.1667 36.3537 43.0262 36.6928 42.7761 36.9429C42.5261 37.1929 42.1869 37.3334 41.8333 37.3334ZM24.4813 26.6241C24.7401 26.6733 24.9786 26.7981 25.1666 26.9827C25.3545 27.1673 25.4836 27.4034 25.5375 27.6613C25.5913 27.9192 25.5676 28.1873 25.4692 28.4317C25.3709 28.6761 25.2023 28.8859 24.9849 29.0346C24.7674 29.1833 24.5107 29.2642 24.2473 29.2672C23.9839 29.2702 23.7254 29.195 23.5047 29.0512C23.2839 28.9075 23.1107 28.7015 23.0069 28.4594C22.903 28.2172 22.8733 27.9498 22.9213 27.6907C22.9534 27.5181 23.0192 27.3535 23.115 27.2063C23.2108 27.0592 23.3348 26.9324 23.4797 26.8333C23.6247 26.7342 23.7878 26.6647 23.9597 26.6288C24.1315 26.5929 24.3088 26.5913 24.4813 26.6241ZM22.348 31.9401C22.6068 31.9893 22.8453 32.1141 23.0332 32.2987C23.2212 32.4833 23.3502 32.7194 23.4041 32.9773C23.458 33.2352 23.4343 33.5033 23.3359 33.7477C23.2376 33.9921 23.069 34.2019 22.8515 34.3506C22.6341 34.4993 22.3774 34.5802 22.114 34.5832C21.8505 34.5862 21.5921 34.511 21.3713 34.3672C21.1506 34.2235 20.9773 34.0175 20.8735 33.7754C20.7697 33.5332 20.7399 33.2658 20.788 33.0067C20.82 32.8345 20.8857 32.6703 20.9813 32.5234C21.0769 32.3766 21.2004 32.25 21.3449 32.1509C21.4894 32.0519 21.6521 31.9823 21.8235 31.9461C21.9949 31.9099 22.1718 31.9079 22.344 31.9401H22.348ZM34.004 49.0974C34.263 49.147 34.5015 49.2722 34.6894 49.4573C34.8772 49.6424 35.006 49.8791 35.0593 50.1374C35.1126 50.3957 35.0882 50.6639 34.989 50.9083C34.8898 51.1527 34.7204 51.3622 34.5022 51.5103C34.284 51.6584 34.0268 51.7384 33.763 51.7403C33.4993 51.7422 33.241 51.6658 33.0206 51.5209C32.8003 51.3759 32.6279 51.1689 32.5253 50.9259C32.4227 50.683 32.3944 50.4151 32.444 50.1561C32.5106 49.8097 32.7117 49.5038 33.0033 49.3054C33.295 49.1069 33.6533 49.0322 34 49.0974H34.004ZM28.5107 22.5334C28.7695 22.5826 29.0079 22.7074 29.1959 22.892C29.3839 23.0766 29.5129 23.3127 29.5668 23.5706C29.6207 23.8285 29.5969 24.0966 29.4986 24.341C29.4002 24.5854 29.2317 24.7952 29.0142 24.9439C28.7967 25.0926 28.5401 25.1736 28.2766 25.1765C28.0132 25.1795 27.7548 25.1043 27.534 24.9606C27.3132 24.8168 27.14 24.6108 27.0362 24.3687C26.9324 24.1266 26.9026 23.8591 26.9507 23.6001C26.9827 23.4274 27.0485 23.2628 27.1443 23.1157C27.2402 22.9685 27.3641 22.8417 27.5091 22.7426C27.654 22.6435 27.8171 22.574 27.989 22.5381C28.1609 22.5022 28.3382 22.5006 28.5107 22.5334ZM34.076 20.2787C34.3344 20.3326 34.571 20.4618 34.7559 20.6502C34.9407 20.8387 35.0655 21.0777 35.1144 21.3371C35.1633 21.5964 35.1341 21.8645 35.0306 22.1073C34.927 22.3501 34.7537 22.5566 34.5326 22.7008C34.3115 22.845 34.0526 22.9204 33.7887 22.9173C33.5248 22.9143 33.2677 22.8329 33.05 22.6836C32.8323 22.5343 32.6639 22.3238 32.566 22.0787C32.4681 21.8336 32.4451 21.5649 32.5 21.3067C32.5733 20.9618 32.7804 20.66 33.0757 20.4673C33.3711 20.2747 33.7308 20.2068 34.076 20.2787ZM20.812 38.7281C20.8612 38.4693 20.986 38.2308 21.1706 38.0429C21.3552 37.8549 21.5913 37.7258 21.8492 37.6719C22.1071 37.6181 22.3752 37.6418 22.6196 37.7402C22.864 37.8385 23.0738 38.0071 23.2225 38.2245C23.3712 38.442 23.4521 38.6987 23.4551 38.9621C23.4581 39.2255 23.3829 39.484 23.2392 39.7047C23.0954 39.9255 22.8894 40.0987 22.6473 40.2025C22.4052 40.3064 22.1377 40.3361 21.8787 40.2881C21.706 40.256 21.5414 40.1902 21.3942 40.0944C21.2471 39.9986 21.1203 39.8746 21.0212 39.7297C20.9221 39.5847 20.8526 39.4216 20.8167 39.2498C20.7808 39.0779 20.7792 38.9006 20.812 38.7281ZM23.0533 44.0121C23.1025 43.7533 23.2273 43.5148 23.4119 43.3269C23.5965 43.1389 23.8327 43.0098 24.0906 42.9559C24.3484 42.9021 24.6165 42.9258 24.8609 43.0242C25.1053 43.1225 25.3151 43.2911 25.4638 43.5085C25.6125 43.726 25.6935 43.9827 25.6964 44.2461C25.6994 44.5095 25.6243 44.768 25.4805 44.9887C25.3367 45.2095 25.1308 45.3827 24.8886 45.4865C24.6465 45.5904 24.379 45.6201 24.12 45.5721C23.9473 45.54 23.7827 45.4742 23.6356 45.3784C23.4884 45.2826 23.3617 45.1586 23.2626 45.0137C23.1634 44.8687 23.0939 44.7056 23.058 44.5338C23.0221 44.3619 23.0205 44.1846 23.0533 44.0121ZM27.1227 48.0001C27.1719 47.7413 27.2966 47.5028 27.4812 47.3148C27.6659 47.1269 27.902 46.9978 28.1599 46.944C28.4178 46.8901 28.6858 46.9138 28.9303 47.0122C29.1747 47.1105 29.3845 47.2791 29.5332 47.4965C29.6819 47.714 29.7628 47.9707 29.7658 48.2341C29.7687 48.4976 29.6936 48.756 29.5498 48.9767C29.4061 49.1975 29.2001 49.3707 28.958 49.4745C28.7158 49.5784 28.4484 49.6081 28.1893 49.5601C28.0167 49.528 27.8521 49.4622 27.7049 49.3664C27.5578 49.2706 27.431 49.1466 27.3319 49.0017C27.2328 48.8567 27.1633 48.6936 27.1274 48.5218C27.0915 48.3499 27.0899 48.1726 27.1227 48.0001ZM48.5187 45.3774C48.2598 45.3282 48.0214 45.2034 47.8334 45.0188C47.6455 44.8342 47.5164 44.5981 47.4625 44.3402C47.4087 44.0823 47.4324 43.8142 47.5307 43.5698C47.6291 43.3254 47.7976 43.1156 48.0151 42.9669C48.2326 42.8182 48.4893 42.7373 48.7527 42.7343C49.0161 42.7313 49.2745 42.8065 49.4953 42.9502C49.7161 43.094 49.8893 43.3 49.9931 43.5421C50.097 43.7842 50.1267 44.0517 50.0787 44.3107C50.0465 44.4833 49.9806 44.6478 49.8847 44.7947C49.7888 44.9417 49.6648 45.0684 49.5199 45.1673C49.3749 45.2663 49.2119 45.3357 49.0401 45.3715C48.8683 45.4073 48.6911 45.4089 48.5187 45.3761V45.3774ZM44.4893 49.4667C44.2305 49.4175 43.9921 49.2928 43.8041 49.1082C43.6161 48.9236 43.4871 48.6874 43.4332 48.4295C43.3793 48.1716 43.4031 47.9036 43.5014 47.6591C43.5998 47.4147 43.7683 47.2049 43.9858 47.0562C44.2033 46.9075 44.4599 46.8266 44.7234 46.8236C44.9868 46.8207 45.2452 46.8958 45.466 47.0396C45.6868 47.1834 45.86 47.3893 45.9638 47.6314C46.0676 47.8736 46.0974 48.141 46.0493 48.4001C46.0173 48.5727 45.9515 48.7373 45.8557 48.8845C45.7598 49.0316 45.6359 49.1584 45.4909 49.2575C45.346 49.3566 45.1829 49.4261 45.011 49.462C44.8391 49.4979 44.6618 49.4995 44.4893 49.4667ZM39.2373 51.6747C38.9783 51.6253 38.7398 51.5001 38.552 51.3151C38.3641 51.13 38.2353 50.8935 38.1819 50.6352C38.1285 50.377 38.1528 50.1088 38.2518 49.8644C38.3509 49.62 38.5201 49.4105 38.7382 49.2623C38.9563 49.1141 39.2135 49.0339 39.4771 49.0318C39.7408 49.0297 39.9992 49.1059 40.2196 49.2507C40.44 49.3954 40.6125 49.6023 40.7153 49.8451C40.8182 50.0879 40.8467 50.3557 40.7973 50.6147C40.7299 50.9612 40.5278 51.2668 40.2353 51.4645C39.9429 51.6623 39.584 51.7359 39.2373 51.6694V51.6747ZM52.116 38.6667C52.116 38.9305 52.0378 39.1882 51.8913 39.4075C51.7448 39.6268 51.5365 39.7977 51.2929 39.8986C51.0493 39.9995 50.7812 40.0259 50.5225 39.9745C50.2639 39.923 50.0263 39.796 49.8399 39.6096C49.6534 39.4231 49.5264 39.1855 49.4749 38.9269C49.4235 38.6682 49.4499 38.4001 49.5508 38.1565C49.6517 37.9129 49.8226 37.7046 50.0419 37.5581C50.2612 37.4116 50.519 37.3334 50.7827 37.3334C51.1363 37.3334 51.4754 37.4739 51.7255 37.7239C51.9755 37.974 52.116 38.3131 52.116 38.6667Z" fill="#FF9748"/>
</g>
<defs>
<linearGradient id="paint0_linear_242_3960" x1="109.609" y1="-2.25" x2="-13.3924" y2="65.6739" gradientUnits="userSpaceOnUse">
<stop stop-color="#FF4C24"/>
<stop offset="1" stop-color="#FFE36C"/>
</linearGradient>
<clipPath id="clip0_242_3960">
<rect width="32" height="32" fill="white" transform="translate(20.5 20)"/>
</clipPath>
</defs>
</svg>
