<svg width="73" height="72" viewBox="0 0 73 72" fill="none" xmlns="http://www.w3.org/2000/svg">
<path d="M0.5 36C0.5 16.1178 16.6178 0 36.5 0C56.3823 0 72.5 16.1178 72.5 36C72.5 55.8823 56.3823 72 36.5 72C16.6178 72 0.5 55.8823 0.5 36Z" fill="url(#paint0_linear_242_3934)" fill-opacity="0.15"/>
<g clip-path="url(#clip0_242_3934)">
<path d="M52.5002 35.9813C52.5002 33.9599 50.9962 32.3066 49.0482 32.0373L46.3536 27.7266C46.8562 27.0573 47.1656 26.2346 47.1656 25.3333C47.1656 23.1239 45.3749 21.3333 43.1656 21.3333C41.6882 21.3333 40.4136 22.1426 39.7202 23.3333H33.2776C32.5842 22.1426 31.3096 21.3333 29.8322 21.3333C27.6229 21.3333 25.8322 23.1239 25.8322 25.3333C25.8322 26.2346 26.1416 27.0573 26.6442 27.7266L23.9496 32.0373C22.0029 32.3066 20.4976 33.9613 20.4976 35.9813C20.4976 38.0013 21.9896 39.6439 23.9242 39.9239L26.6429 44.2746C26.1402 44.9439 25.8309 45.7666 25.8309 46.6679C25.8309 48.8772 27.6216 50.6679 29.8309 50.6679C31.3082 50.6679 32.5829 49.8586 33.2762 48.6679H39.7189C40.4122 49.8586 41.6869 50.6679 43.1642 50.6679C45.3736 50.6679 47.1642 48.8772 47.1642 46.6679C47.1642 45.7666 46.8549 44.9439 46.3522 44.2746L49.0709 39.9239C51.0056 39.6439 52.4976 37.9946 52.4976 35.9813H52.5002ZM39.7216 44.6666H33.2789C32.6762 43.6306 31.6309 42.8986 30.3949 42.7226L27.6816 38.3813C28.1882 37.7106 28.5002 36.8853 28.5002 35.9799C28.5002 35.0826 28.1936 34.2626 27.6949 33.5946L30.3949 29.2746C31.6309 29.0999 32.6762 28.3666 33.2789 27.3306H39.7216C40.3242 28.3666 41.3696 29.0986 42.6056 29.2746L45.3056 33.5946C44.8056 34.2626 44.5002 35.0813 44.5002 35.9799C44.5002 36.8853 44.8122 37.7106 45.3189 38.3813L42.6056 42.7226C41.3696 42.8973 40.3242 43.6306 39.7216 44.6666ZM41.0336 31.8506L39.6976 32.6199C39.1762 32.1253 38.5376 31.7639 37.8322 31.5519V30.0013H35.1656V31.5519C34.4602 31.7639 33.8229 32.1266 33.3002 32.6199L31.9642 31.8506L30.6336 34.1599L31.9669 34.9279C31.8856 35.2733 31.8309 35.6293 31.8309 35.9986C31.8309 36.3679 31.8856 36.7239 31.9669 37.0693L30.6336 37.8373L31.9642 40.1466L33.3002 39.3773C33.8216 39.8719 34.4602 40.2332 35.1656 40.4452V41.9959H37.8322V40.4452C38.5376 40.2332 39.1749 39.8706 39.6976 39.3773L41.0336 40.1466L42.3642 37.8373L41.0309 37.0693C41.1122 36.7239 41.1669 36.3679 41.1669 35.9986C41.1669 35.6293 41.1122 35.2733 41.0309 34.9279L42.3642 34.1599L41.0336 31.8506ZM36.5002 37.9999C35.3976 37.9999 34.5002 37.1026 34.5002 35.9999C34.5002 34.8973 35.3976 33.9999 36.5002 33.9999C37.6029 33.9999 38.5002 34.8973 38.5002 35.9999C38.5002 37.1026 37.6029 37.9999 36.5002 37.9999Z" fill="#FF9748"/>
</g>
<defs>
<linearGradient id="paint0_linear_242_3934" x1="109.609" y1="-2.25" x2="-13.3924" y2="65.6739" gradientUnits="userSpaceOnUse">
<stop stop-color="#FF4C24"/>
<stop offset="1" stop-color="#FFE36C"/>
</linearGradient>
<clipPath id="clip0_242_3934">
<rect width="32" height="32" fill="white" transform="translate(20.5 20)"/>
</clipPath>
</defs>
</svg>
