<svg width="73" height="72" viewBox="0 0 73 72" fill="none" xmlns="http://www.w3.org/2000/svg">
<path d="M0.5 36C0.5 16.1178 16.6178 0 36.5 0C56.3823 0 72.5 16.1178 72.5 36C72.5 55.8823 56.3823 72 36.5 72C16.6178 72 0.5 55.8823 0.5 36Z" fill="url(#paint0_linear_242_3957)" fill-opacity="0.15"/>
<g clip-path="url(#clip0_242_3957)">
<path d="M49.8227 48.224C49.804 48.432 49.7827 48.5907 49.76 48.6667C49.1867 50.5947 47.4 52 45.2867 52H28.82C29.46 51.0453 29.8333 49.8987 29.8333 48.6667C29.8333 46.8253 31.3253 45.3333 33.1667 45.3333H47.164C48.724 45.3333 49.9627 46.6707 49.8213 48.224H49.8227ZM40.9 35.792L44.5107 33.376L48.1827 35.7667C48.656 36.0747 49.2747 36.0507 49.724 35.7053C50.1733 35.36 50.3547 34.768 50.176 34.2307L48.8707 30.2573L52.0253 27.688C52.4533 27.3267 52.6107 26.7373 52.4187 26.2107C52.2267 25.684 51.7253 25.3347 51.1667 25.3347H47.1653L45.7493 21.3613C45.5547 20.84 45.056 20.4933 44.5 20.4933C43.944 20.4933 43.4453 20.84 43.2507 21.3613L41.8347 25.3347H37.8333C37.2747 25.3347 36.7747 25.684 36.5827 26.208C36.3893 26.7333 36.5453 27.3213 36.972 27.684L40.1413 30.2627L38.8867 34.284C38.7173 34.824 38.9067 35.412 39.3587 35.752C39.5947 35.9293 39.876 36.0187 40.1587 36.0187C40.4173 36.0187 40.676 35.944 40.9 35.7933V35.792ZM45.8333 39.908V42.6667H33.168C29.8507 42.6667 27.172 45.356 27.1667 48.6733C27.1627 50.6467 25.444 52.2187 23.42 51.976C21.7147 51.7707 20.5 50.1987 20.5 48.48V26.6587C20.5 22.9773 23.4853 20 27.1667 20H39.34C37.2133 21.1773 35.536 23.0613 34.616 25.3333H27.1667C26.4307 25.3333 25.8333 25.9293 25.8333 26.6667C25.8333 27.404 26.4307 28 27.1667 28H33.9253C33.8707 28.4373 33.8333 28.8813 33.8333 29.3333C33.8333 29.7853 33.8707 30.2293 33.9253 30.6667H27.1667C26.4307 30.6667 25.8333 31.2627 25.8333 32C25.8333 32.7373 26.4307 33.3333 27.1667 33.3333H34.616C36.1987 37.2413 40.0253 40 44.5 40C44.952 40 45.396 39.9627 45.8333 39.908ZM35.1667 37.3333C35.1667 36.596 34.5693 36 33.8333 36H27.1667C26.4307 36 25.8333 36.596 25.8333 37.3333C25.8333 38.0707 26.4307 38.6667 27.1667 38.6667H33.8333C34.5693 38.6667 35.1667 38.0707 35.1667 37.3333Z" fill="#FF9748"/>
</g>
<defs>
<linearGradient id="paint0_linear_242_3957" x1="109.609" y1="-2.25" x2="-13.3924" y2="65.6739" gradientUnits="userSpaceOnUse">
<stop stop-color="#FF4C24"/>
<stop offset="1" stop-color="#FFE36C"/>
</linearGradient>
<clipPath id="clip0_242_3957">
<rect width="32" height="32" fill="white" transform="translate(20.5 20)"/>
</clipPath>
</defs>
</svg>
